<svg width="133" height="111" viewBox="0 0 133 111" fill="none" xmlns="http://www.w3.org/2000/svg">
<path d="M81.9076 95.8007C76.2008 90.4404 68.7987 90.7872 62.3121 93.5766C55.8255 96.3659 49.8671 101.33 43.5471 104.86C38.2487 107.818 32.6888 109.761 27.061 110.625C19.0062 111.854 10.0111 110.352 4.39937 101.691C-1.8503 92.0406 -1.37031 74.6353 5.38648 65.7825C8.82534 61.2769 13.3278 59.065 17.2541 55.5425C21.1803 52.0199 24.8154 46.1818 24.481 39.3919C24.1713 33.1114 20.572 28.2809 16.8469 25.2553C13.9682 22.9151 10.4232 20.3606 10.0765 15.5164C9.74089 10.8278 12.722 7.15507 15.5686 5.06611C24.8548 -1.74964 36.298 -1.6841 45.5522 5.23814C48.8528 7.70666 51.887 10.9903 55.348 12.9154C64.4356 17.9671 74.4499 12.8813 84.073 11.0217C92.2167 9.44746 100.569 10.2626 108.504 13.4069C113.269 15.2952 118.053 18.1856 121.401 23.5609C123.815 27.4385 125.32 32.3455 126.731 37.1924C128.237 42.3616 129.684 47.5667 131.073 52.8077C131.906 55.948 132.727 59.162 132.943 62.5275C133.333 68.6278 131.689 74.6572 129.451 79.8058C124.133 92.0269 115.182 100.622 105.488 102.806C95.795 104.991 85.5401 100.724 78.022 91.3934" fill="white" fill-opacity="0.77"/>
</svg>
