<svg width="113" height="16" viewBox="0 0 113 16" fill="none" xmlns="http://www.w3.org/2000/svg">
<g clip-path="url(#clip0_3_574)">
<path d="M7.69356 0.859442L5.74067 4.86855L1.37133 5.51352C0.587782 5.62859 0.273764 6.60664 0.841987 7.16683L4.0031 10.2857L3.25544 14.6915C3.12086 15.4879 3.94927 16.0844 4.6431 15.7119L8.55188 13.6317L12.4607 15.7119C13.1545 16.0813 13.9829 15.4879 13.8483 14.6915L13.1007 10.2857L16.2618 7.16683C16.83 6.60664 16.516 5.62859 15.7324 5.51352L11.3631 4.86855L9.4102 0.859442C9.06029 0.144827 8.04646 0.135742 7.69356 0.859442Z" fill="#FFBA60"/>
</g>
<g clip-path="url(#clip1_3_574)">
<path d="M31.6935 0.859442L29.7407 4.86855L25.3713 5.51352C24.5878 5.62859 24.2737 6.60664 24.842 7.16683L28.0031 10.2857L27.2554 14.6915C27.1208 15.4879 27.9493 16.0844 28.6431 15.7119L32.5519 13.6317L36.4606 15.7119C37.1545 16.0813 37.9829 15.4879 37.8483 14.6915L37.1006 10.2857L40.2618 7.16683C40.83 6.60664 40.516 5.62859 39.7324 5.51352L35.3631 4.86855L33.4102 0.859442C33.0603 0.144827 32.0464 0.135742 31.6935 0.859442Z" fill="#FFBA60"/>
</g>
<g clip-path="url(#clip2_3_574)">
<path d="M55.6936 0.859442L53.7407 4.86855L49.3713 5.51352C48.5878 5.62859 48.2738 6.60664 48.842 7.16683L52.0031 10.2857L51.2554 14.6915C51.1209 15.4879 51.9493 16.0844 52.6431 15.7119L56.5519 13.6317L60.4607 15.7119C61.1545 16.0813 61.9829 15.4879 61.8483 14.6915L61.1007 10.2857L64.2618 7.16683C64.83 6.60664 64.516 5.62859 63.7324 5.51352L59.3631 4.86855L57.4102 0.859442C57.0603 0.144827 56.0465 0.135742 55.6936 0.859442Z" fill="#FFBA60"/>
</g>
<g clip-path="url(#clip3_3_574)">
<path d="M79.6936 0.859442L77.7407 4.86855L73.3713 5.51352C72.5878 5.62859 72.2738 6.60664 72.842 7.16683L76.0031 10.2857L75.2555 14.6915C75.1209 15.4879 75.9493 16.0844 76.6431 15.7119L80.5519 13.6317L84.4607 15.7119C85.1545 16.0813 85.9829 15.4879 85.8483 14.6915L85.1007 10.2857L88.2618 7.16683C88.83 6.60664 88.516 5.62859 87.7324 5.51352L83.3631 4.86855L81.4102 0.859442C81.0603 0.144827 80.0465 0.135742 79.6936 0.859442Z" fill="#FFBA60"/>
</g>
<g clip-path="url(#clip4_3_574)">
<path d="M103.694 0.859442L101.741 4.86855L97.3713 5.51352C96.5878 5.62859 96.2738 6.60664 96.842 7.16683L100.003 10.2857L99.2554 14.6915C99.1209 15.4879 99.9493 16.0844 100.643 15.7119L104.552 13.6317L108.461 15.7119C109.154 16.0813 109.983 15.4879 109.848 14.6915L109.101 10.2857L112.262 7.16683C112.83 6.60664 112.516 5.62859 111.732 5.51352L107.363 4.86855L105.41 0.859442C105.06 0.144827 104.046 0.135742 103.694 0.859442Z" fill="#FFBA60"/>
</g>
<defs>
<clipPath id="clip0_3_574">
<rect width="16" height="16" fill="white" transform="translate(0.55188)"/>
</clipPath>
<clipPath id="clip1_3_574">
<rect width="16" height="16" fill="white" transform="translate(24.5519)"/>
</clipPath>
<clipPath id="clip2_3_574">
<rect width="16" height="16" fill="white" transform="translate(48.5519)"/>
</clipPath>
<clipPath id="clip3_3_574">
<rect width="16" height="16" fill="white" transform="translate(72.5519)"/>
</clipPath>
<clipPath id="clip4_3_574">
<rect width="16" height="16" fill="white" transform="translate(96.5519)"/>
</clipPath>
</defs>
</svg>
