<svg width="18" height="16" viewBox="0 0 18 16" fill="none" xmlns="http://www.w3.org/2000/svg">
<path d="M4.41875 16H0.943564V5.31762H4.41875V16ZM2.67928 3.86044C1.56803 3.86044 0.666687 2.98185 0.666687 1.92111C0.666687 1.4116 0.878728 0.92296 1.25616 0.562681C1.6336 0.202403 2.14551 0 2.67928 0C3.21306 0 3.72497 0.202403 4.10241 0.562681C4.47984 0.92296 4.69188 1.4116 4.69188 1.92111C4.69188 2.98185 3.79016 3.86044 2.67928 3.86044ZM17.4252 16H13.9575V10.7999C13.9575 9.56057 13.9313 7.97125 12.1507 7.97125C10.3439 7.97125 10.067 9.31771 10.067 10.7106V16H6.5956V5.31762H9.9286V6.77479H9.97724C10.4412 5.93549 11.5745 5.04976 13.2653 5.04976C16.7824 5.04976 17.429 7.26052 17.429 10.132V16H17.4252Z" fill="black"/>
</svg>
