<svg width="32" height="32" viewBox="0 0 32 32" fill="none" xmlns="http://www.w3.org/2000/svg">
<circle cx="16" cy="16" r="15.5" stroke="black"/>
<path d="M21.5609 12.7411C21.5698 12.8833 21.5698 13.0254 21.5698 13.1675C21.5698 17.5025 18.6828 22.4975 13.4061 22.4975C11.7804 22.4975 10.2703 21.9594 9 21.0254C9.23097 21.0558 9.45303 21.066 9.69289 21.066C11.0342 21.066 12.269 20.5483 13.2551 19.665C11.9936 19.6345 10.9365 18.6904 10.5723 17.3909C10.75 17.4213 10.9277 17.4416 11.1142 17.4416C11.3718 17.4416 11.6295 17.401 11.8693 17.33C10.5546 17.0254 9.5685 15.7056 9.5685 14.1117V14.0711C9.95047 14.3148 10.3947 14.467 10.8654 14.4873C10.0926 13.8985 9.58628 12.8934 9.58628 11.7563C9.58628 11.1472 9.72838 10.5888 9.97713 10.1015C11.3896 12.0914 13.5127 13.3908 15.8934 13.533C15.849 13.2893 15.8223 13.0356 15.8223 12.7818C15.8223 10.9746 17.1015 9.50256 18.6916 9.50256C19.5177 9.50256 20.2639 9.8985 20.788 10.5381C21.4365 10.396 22.0583 10.1218 22.6091 9.74622C22.3959 10.5077 21.9428 11.1473 21.3477 11.5533C21.9251 11.4823 22.4847 11.2995 22.9999 11.0457C22.6091 11.6954 22.1205 12.2741 21.5609 12.7411Z" fill="black"/>
</svg>
