<svg width="32" height="32" viewBox="0 0 32 32" fill="none" xmlns="http://www.w3.org/2000/svg">
<circle cx="16" cy="16" r="15.5" stroke="black"/>
<path d="M12.1337 22.0002H9.23125V12.6533H12.1337V22.0002ZM10.6809 11.3783C9.75281 11.3783 9 10.6096 9 9.68143C9 9.23561 9.1771 8.80806 9.49234 8.49282C9.80757 8.17759 10.2351 8.00049 10.6809 8.00049C11.1267 8.00049 11.5543 8.17759 11.8695 8.49282C12.1848 8.80806 12.3619 9.23561 12.3619 9.68143C12.3619 10.6096 11.6088 11.3783 10.6809 11.3783ZM22.9969 22.0002H20.1006V17.4502C20.1006 16.3658 20.0787 14.9752 18.5916 14.9752C17.0825 14.9752 16.8513 16.1533 16.8513 17.3721V22.0002H13.9519V12.6533H16.7356V13.9283H16.7762C17.1637 13.1939 18.1103 12.4189 19.5225 12.4189C22.46 12.4189 23 14.3533 23 16.8658V22.0002H22.9969Z" fill="black"/>
</svg>
