<svg width="25" height="17" viewBox="0 0 25 17" fill="none" xmlns="http://www.w3.org/2000/svg">
<path d="M0.55188 8.5C0.55188 3.80558 4.35746 0 9.05188 0H16.0519C20.7463 0 24.5519 3.80558 24.5519 8.5C24.5519 13.1944 20.7463 17 16.0519 17H9.05188C4.35746 17 0.55188 13.1944 0.55188 8.5Z" fill="#FFBA60"/>
<path d="M12.0088 6.5C11.9488 6.53333 11.8488 6.57667 11.7088 6.63C11.5688 6.67667 11.4621 6.71333 11.3888 6.74C11.0954 6.83333 10.9121 6.9 10.8388 6.94V5.79C11.0654 5.69667 11.3388 5.56333 11.6588 5.39C11.9854 5.21 12.2154 5.04667 12.3488 4.9H13.5588V13H12.0088V6.5Z" fill="white"/>
</svg>
